<svg width="35" height="95" viewBox="0 0 35 95" fill="none" xmlns="http://www.w3.org/2000/svg">
<mask id="mask0_923_39333" style="mask-type:alpha" maskUnits="userSpaceOnUse" x="2" y="28" width="33" height="43">
<path d="M16.526 70.7816H2.45084V28.3126H16.526C20.1318 28.3126 23.1025 28.7082 25.4381 29.4993C27.7738 30.2487 29.5767 31.5186 30.8469 33.309C32.1581 35.0577 33.0596 37.1395 33.5513 39.5544C34.043 41.9277 34.2887 45.0296 34.2887 48.8601C34.2887 52.6906 34.0635 55.8758 33.6128 58.4156C33.1621 60.9138 32.3016 63.1621 31.0313 65.1607C29.802 67.1176 27.9991 68.554 25.6225 69.47C23.246 70.3444 20.2138 70.7816 16.526 70.7816ZM25.4381 53.9189C25.5201 52.5865 25.5611 50.7545 25.5611 48.4229C25.5611 46.0497 25.4791 44.1552 25.3152 42.7396C25.1513 41.3239 24.762 40.0332 24.1474 38.8674C23.5328 37.7016 22.6108 36.9105 21.3816 36.4941C20.1933 36.0361 18.5747 35.8071 16.526 35.8071H10.9328V63.2871H16.526C19.5991 63.2871 21.8323 62.496 23.2255 60.9138C24.4138 59.6231 25.1513 57.2914 25.4381 53.9189Z" fill="black"/>
</mask>
<g mask="url(#mask0_923_39333)">
<path d="M96.4299 -11.3806L-67.3366 11.2072L-61.4416 55.336L102.325 32.7482L96.4299 -11.3806Z" fill="black"/>
<path d="M96.4299 39.6583L-67.3366 62.2462L-61.4416 106.375L102.325 83.7871L96.4299 39.6583Z" fill="black"/>
</g>
</svg>
